<svg width="193" height="185" viewBox="0 0 193 185" fill="none" xmlns="http://www.w3.org/2000/svg">
<path d="M96.4999 146.89L94.1839 145.04C44.3899 106.19 30.8799 92.5 30.8799 70.3C30.8799 51.8 46.3199 37 65.6199 37C81.4459 37 90.3239 45.51 96.4999 52.17C102.676 45.51 111.554 37 127.38 37C146.68 37 162.12 51.8 162.12 70.3C162.12 92.5 148.61 106.19 98.8159 145.04L96.4999 146.89ZM65.6199 44.4C50.5659 44.4 38.5999 55.87 38.5999 70.3C38.5999 89.17 50.9519 101.75 96.4999 137.27C142.048 101.75 154.4 89.17 154.4 70.3C154.4 55.87 142.434 44.4 127.38 44.4C113.87 44.4 106.536 52.17 100.746 58.46L96.4999 63.27L92.2539 58.46C86.4639 52.17 79.1299 44.4 65.6199 44.4Z" fill="black"/>
</svg>
