<svg width="196" height="189" viewBox="0 0 196 189" fill="none" xmlns="http://www.w3.org/2000/svg">
<path d="M36.75 106.312H159.25L140.107 173.25H55.8968L36.75 106.312Z" stroke="black" stroke-width="4" stroke-linecap="round" stroke-linejoin="round"/>
<path d="M159.25 106.312H36.75C36.75 84.6562 59.2083 74.8125 59.2083 74.8125C59.2083 66.9375 67.375 43.3125 98 43.3125C128.625 43.3125 136.792 66.9375 136.792 74.8125C136.792 74.8125 159.25 84.6562 159.25 106.312Z" stroke="black" stroke-width="4" stroke-linecap="round" stroke-linejoin="round"/>
<path d="M24.5 106.312H171.5" stroke="black" stroke-width="4" stroke-linecap="round"/>
<path d="M114.333 47.25C114.333 43.0728 112.612 39.0668 109.549 36.1131C106.486 33.1594 102.332 31.5 97.9998 31.5C93.668 31.5 89.5135 33.1594 86.4504 36.1131C83.3873 39.0668 81.6665 43.0728 81.6665 47.25" stroke="black" stroke-width="4"/>
<path d="M98 31.5L114.333 15.75" stroke="black" stroke-width="4" stroke-linecap="round"/>
<path d="M81.6665 106.312V173.25" stroke="black" stroke-width="4"/>
<path d="M114.333 106.312V173.25" stroke="black" stroke-width="4"/>
</svg>
