<svg width="157" height="156" viewBox="0 0 157 156" fill="none" xmlns="http://www.w3.org/2000/svg">
<path d="M72.1618 19.5C64.6733 19.5 57.7094 23.4591 54.1722 29.999L43.6953 47.6201L54.9515 54.2344L65.6329 36.2705L65.6967 36.1562C66.8564 34.0122 69.3274 32.5 72.1618 32.5H85.1684C88.0067 32.5 90.483 34.0087 91.6462 36.1689L91.7101 36.2832L102.443 54.4248L91.5823 60.9248L118.516 67.5771L125.198 40.8027L113.648 47.7217L103.184 30.0371C99.6496 23.4744 92.6659 19.5 85.1684 19.5H72.1618ZM43.2098 62.6006L16.136 68.6816L27.0856 75.5498L15.5993 94.8594L15.5354 94.9736C12.0781 101.374 12.6257 109.249 16.9153 115.146V115.159L21.6683 121.672C25.5056 126.957 31.722 130 38.2907 130H65.4157V117H38.2907C35.8058 117 33.5511 115.828 32.2729 114.067L27.52 107.542C26.0791 105.561 25.9379 103.232 27.0728 101.131L38.1502 82.4941L49.317 89.502L43.2098 62.6006ZM130.308 75.8672L119.027 82.4561L130.091 101.156C131.212 103.246 131.065 105.577 129.631 107.542L124.878 114.067C123.595 115.828 121.333 117 118.861 117H98.124V104L78.499 123.5L98.124 143V130H118.861C125.416 130 131.625 126.97 135.47 121.697L140.223 115.172C144.517 109.288 145.08 101.42 141.629 95.0117L141.565 94.8975L130.308 75.8672Z" fill="black"/>
</svg>
